<!-- TDM Logo SVG Template -->
<svg xmlns="http://www.w3.org/2000/svg" width="512" height="512" viewBox="0 0 512 512">
  <!-- Orange gradient background -->
  <defs>
    <radialGradient id="orangeGradient" cx="50%" cy="30%" r="70%">
      <stop offset="0%" style="stop-color:#ff9500;stop-opacity:1" />
      <stop offset="100%" style="stop-color:#ff6500;stop-opacity:1" />
    </radialGradient>
  </defs>
  
  <!-- Circle background -->
  <circle cx="256" cy="256" r="250" fill="url(#orangeGradient)" stroke="none"/>
  
  <!-- TDM Text -->
  <text x="256" y="200" text-anchor="middle" fill="white" font-family="Arial Black, sans-serif" font-size="120" font-weight="900" letter-spacing="8px">
    TDM
  </text>
  
  <!-- Underline -->
  <rect x="100" y="220" width="312" height="8" fill="white"/>
  
  <!-- TECHNIC D MAP text -->
  <text x="256" y="280" text-anchor="middle" fill="white" font-family="Arial, sans-serif" font-size="28" font-weight="600" letter-spacing="2px">
    TECHNIC D MAP
  </text>
  
  <!-- LIMITED PARTNERSHIP text -->
  <text x="256" y="310" text-anchor="middle" fill="white" font-family="Arial, sans-serif" font-size="18" font-weight="400" letter-spacing="1px">
    — LIMITED PARTNERSHIP —
  </text>
  
  <!-- Subtle map icon -->
  <g fill="rgba(255,255,255,0.3)" transform="translate(200, 350)">
    <path d="M56 0C25.1 0 0 25.1 0 56s25.1 56 56 56 56-25.1 56-56S86.9 0 56 0zm0 80c-13.2 0-24-10.8-24-24s10.8-24 24-24 24 10.8 24 24-10.8 24-24 24z"/>
    <circle cx="56" cy="56" r="16"/>
  </g>
</svg>
